<svg width="50" height="50" viewBox="0 0 50 50" fill="none" xmlns="http://www.w3.org/2000/svg">
<g id="close-circle-line">
<path id="Vector" d="M25 45.8327C13.4941 45.8327 4.16667 36.5052 4.16667 24.9993C4.16667 13.4934 13.4941 4.16602 25 4.16602C36.5058 4.16602 45.8333 13.4934 45.8333 24.9993C45.8333 36.5052 36.5058 45.8327 25 45.8327ZM25 41.666C34.2048 41.666 41.6667 34.2041 41.6667 24.9993C41.6667 15.7946 34.2048 8.33268 25 8.33268C15.7953 8.33268 8.33333 15.7946 8.33333 24.9993C8.33333 34.2041 15.7953 41.666 25 41.666ZM25 22.0531L30.8925 16.1605L33.8387 19.1068L27.9463 24.9993L33.8387 30.8918L30.8925 33.8381L25 27.9456L19.1074 33.8381L16.1612 30.8918L22.0538 24.9993L16.1612 19.1068L19.1074 16.1605L25 22.0531Z" fill="#DE786D"/>
</g>
</svg>
