<svg width="20" height="21" viewBox="0 0 20 21" fill="none" xmlns="http://www.w3.org/2000/svg">
<g id="delete-bin-line">
<path id="Vector" d="M14.1666 5.49935H18.3333V7.16602H16.6666V17.9993C16.6666 18.4596 16.2935 18.8327 15.8333 18.8327H4.16663C3.70639 18.8327 3.33329 18.4596 3.33329 17.9993V7.16602H1.66663V5.49935H5.83329V2.99935C5.83329 2.53912 6.20639 2.16602 6.66663 2.16602H13.3333C13.7935 2.16602 14.1666 2.53912 14.1666 2.99935V5.49935ZM15 7.16602H4.99996V17.166H15V7.16602ZM7.49996 9.66602H9.16663V14.666H7.49996V9.66602ZM10.8333 9.66602H12.5V14.666H10.8333V9.66602ZM7.49996 3.83268V5.49935H12.5V3.83268H7.49996Z" fill="#DE786D"/>
</g>
</svg>
