<svg width="20" height="21" viewBox="0 0 20 21" fill="none" xmlns="http://www.w3.org/2000/svg">
<g id="disc-line">
<path id="Vector" d="M12.5001 4.31715V10.4992C12.5001 11.8799 11.3808 12.9992 10.0001 12.9992C8.61933 12.9992 7.50008 11.8799 7.50008 10.4992C7.50008 9.11851 8.61933 7.99921 10.0001 7.99921C10.2922 7.99921 10.5727 8.04935 10.8334 8.14147V2.20703C15.0445 2.62513 18.3334 6.17809 18.3334 10.4992C18.3334 15.1016 14.6024 18.8325 10.0001 18.8325C5.39771 18.8325 1.66675 15.1016 1.66675 10.4992C1.66675 6.17809 4.95565 2.62513 9.16675 2.20703V3.88413C5.87816 4.29421 3.33341 7.09953 3.33341 10.4992C3.33341 14.1811 6.31818 17.1658 10.0001 17.1658C13.682 17.1658 16.6667 14.1811 16.6667 10.4992C16.6667 7.7014 14.9432 5.30612 12.5001 4.31715Z" fill="white"/>
</g>
</svg>
