<svg width="20" height="20" viewBox="0 0 20 20" fill="none" xmlns="http://www.w3.org/2000/svg">
<g id="disc-line">
<path id="Vector" d="M12.5001 3.81715V9.99918C12.5001 11.3799 11.3808 12.4992 10.0001 12.4992C8.61933 12.4992 7.50008 11.3799 7.50008 9.99918C7.50008 8.61851 8.61933 7.49921 10.0001 7.49921C10.2922 7.49921 10.5727 7.54935 10.8334 7.64147V1.70703C15.0445 2.12513 18.3334 5.67809 18.3334 9.99918C18.3334 14.6016 14.6024 18.3325 10.0001 18.3325C5.39771 18.3325 1.66675 14.6016 1.66675 9.99918C1.66675 5.67809 4.95565 2.12513 9.16675 1.70703V3.38413C5.87816 3.79421 3.33341 6.59953 3.33341 9.99918C3.33341 13.6811 6.31818 16.6658 10.0001 16.6658C13.682 16.6658 16.6667 13.6811 16.6667 9.99918C16.6667 7.2014 14.9432 4.80612 12.5001 3.81715Z" fill="#3E46B6"/>
</g>
</svg>
