<svg width="20" height="20" viewBox="0 0 20 20" fill="none" xmlns="http://www.w3.org/2000/svg">
<g id="emotion-happy-line">
<path id="Vector" d="M9.99935 18.3327C5.39697 18.3327 1.66602 14.6017 1.66602 9.99935C1.66602 5.39697 5.39697 1.66602 9.99935 1.66602C14.6017 1.66602 18.3327 5.39697 18.3327 9.99935C18.3327 14.6017 14.6017 18.3327 9.99935 18.3327ZM9.99935 16.666C13.6813 16.666 16.666 13.6813 16.666 9.99935C16.666 6.31745 13.6813 3.33268 9.99935 3.33268C6.31745 3.33268 3.33268 6.31745 3.33268 9.99935C3.33268 13.6813 6.31745 16.666 9.99935 16.666ZM5.83268 10.8327H7.49935C7.49935 12.2134 8.6186 13.3327 9.99935 13.3327C11.3801 13.3327 12.4993 12.2134 12.4993 10.8327H14.166C14.166 13.1338 12.3005 14.9993 9.99935 14.9993C7.69817 14.9993 5.83268 13.1338 5.83268 10.8327ZM6.66602 9.16602C5.97566 9.16602 5.41602 8.60635 5.41602 7.91602C5.41602 7.22566 5.97566 6.66602 6.66602 6.66602C7.35637 6.66602 7.91602 7.22566 7.91602 7.91602C7.91602 8.60635 7.35637 9.16602 6.66602 9.16602ZM13.3327 9.16602C12.6423 9.16602 12.0827 8.60635 12.0827 7.91602C12.0827 7.22566 12.6423 6.66602 13.3327 6.66602C14.023 6.66602 14.5827 7.22566 14.5827 7.91602C14.5827 8.60635 14.023 9.16602 13.3327 9.16602Z" fill="#444444"/>
</g>
</svg>
