<svg width="20" height="21" viewBox="0 0 20 21" fill="none" xmlns="http://www.w3.org/2000/svg">
<g id="bx-headphone.svg">
<path id="Vector" d="M16.6667 10.5007V9.07824C16.6667 5.37658 13.7676 2.27741 10.2042 2.16991C8.36758 2.12741 6.66175 2.78324 5.35758 4.04991C4.71461 4.66935 4.20378 5.4126 3.85589 6.23484C3.508 7.05708 3.33027 7.94127 3.33341 8.83408V10.5007C2.41425 10.5007 1.66675 11.2482 1.66675 12.1674V15.5007C1.66675 16.4199 2.41425 17.1674 3.33341 17.1674H5.00008V8.83408C4.99763 8.16449 5.13082 7.50134 5.39163 6.88462C5.65243 6.26791 6.03545 5.71041 6.51758 5.24574C6.99768 4.77839 7.56714 4.41271 8.19187 4.17058C8.8166 3.92844 9.48376 3.81485 10.1534 3.83658C12.8267 3.91658 15.0001 6.26824 15.0001 9.07824V17.1674H16.6667C17.5859 17.1674 18.3334 16.4199 18.3334 15.5007V12.1674C18.3334 11.2482 17.5859 10.5007 16.6667 10.5007Z" fill="#36D7FF"/>
<path id="Vector_2" d="M5.83325 10.5H7.49992V17.1667H5.83325V10.5ZM12.4999 10.5H14.1666V17.1667H12.4999V10.5Z" fill="#36D7FF"/>
</g>
</svg>
