<svg width="25" height="25" viewBox="0 0 25 25" fill="none" xmlns="http://www.w3.org/2000/svg">
<g id="mv-fill">
<path id="Vector" d="M2.08398 4.15589C2.08398 3.58439 2.55827 3.12109 3.11711 3.12109H21.8842C22.4548 3.12109 22.9173 3.58458 22.9173 4.15589V20.8363C22.9173 21.4078 22.443 21.8711 21.8842 21.8711H3.11711C2.54654 21.8711 2.08398 21.4077 2.08398 20.8363V4.15589ZM12.5007 12.6739C12.1748 12.5588 11.8242 12.4961 11.459 12.4961C9.7331 12.4961 8.33398 13.8952 8.33398 15.6211C8.33398 17.347 9.7331 18.7461 11.459 18.7461C13.1849 18.7461 14.584 17.347 14.584 15.6211V8.32943H17.709V6.24609H12.5007V12.6739Z" fill="#3E46B6"/>
</g>
</svg>
