<svg width="50" height="50" viewBox="0 0 50 50" fill="none" xmlns="http://www.w3.org/2000/svg">
<g id="information-line">
<path id="Vector" d="M25 45.8327C13.4941 45.8327 4.16669 36.5052 4.16669 24.9993C4.16669 13.4934 13.4941 4.16602 25 4.16602C36.5059 4.16602 45.8334 13.4934 45.8334 24.9993C45.8334 36.5052 36.5059 45.8327 25 45.8327ZM25 41.666C34.2048 41.666 41.6667 34.2041 41.6667 24.9993C41.6667 15.7946 34.2048 8.33268 25 8.33268C15.7953 8.33268 8.33335 15.7946 8.33335 24.9993C8.33335 34.2041 15.7953 41.666 25 41.666ZM22.9167 14.5827H27.0834V18.7493H22.9167V14.5827ZM22.9167 22.916H27.0834V35.416H22.9167V22.916Z" fill="#3E46B6"/>
</g>
</svg>
