<svg width="20" height="20" viewBox="0 0 20 20" fill="none" xmlns="http://www.w3.org/2000/svg">
<g id="link">
<path id="Vector" d="M15.3033 12.9452L14.1247 11.7667L15.3033 10.5882C16.9304 8.96102 16.9304 6.32283 15.3033 4.69565C13.676 3.06846 11.0378 3.06846 9.41067 4.69565L8.23216 5.87416L7.05365 4.69565L8.23216 3.51714C10.5103 1.23908 14.2037 1.23908 16.4818 3.51714C18.7598 5.7952 18.7598 9.48869 16.4818 11.7667L15.3033 12.9452ZM12.9462 15.3023L11.7677 16.4808C9.48967 18.7589 5.79617 18.7589 3.51811 16.4808C1.24006 14.2027 1.24006 10.5093 3.51811 8.23118L4.69662 7.05267L5.87513 8.23118L4.69662 9.40969C3.06944 11.0369 3.06944 13.6751 4.69662 15.3023C6.32381 16.9294 8.96201 16.9294 10.5892 15.3023L11.7677 14.1238L12.9462 15.3023ZM12.3569 6.46341L13.5354 7.64193L7.6429 13.5345L6.46439 12.3559L12.3569 6.46341Z" fill="#444444"/>
</g>
</svg>
