<svg width="20" height="21" viewBox="0 0 20 21" fill="none" xmlns="http://www.w3.org/2000/svg">
<g id="bxs-microphone.svg">
<path id="Vector" d="M10.0001 13.8326C11.8384 13.8326 13.3334 12.3376 13.3334 10.4993V5.49927C13.3334 3.65177 11.8459 2.14844 10.0176 2.14844C9.95893 2.14879 9.9005 2.15578 9.84341 2.16927C8.98779 2.21075 8.18085 2.57957 7.58956 3.1994C6.99827 3.81923 6.66788 4.64264 6.66675 5.49927V10.4993C6.66675 12.3376 8.16175 13.8326 10.0001 13.8326Z" fill="#36D7FF"/>
<path id="Vector_2" d="M9.16658 17.1092V18.8333H10.8333V17.1092C14.1158 16.6967 16.6666 13.8942 16.6666 10.5H14.9999C14.9999 13.2575 12.7574 15.5 9.99992 15.5C7.24242 15.5 4.99992 13.2575 4.99992 10.5H3.33325C3.33325 13.8933 5.88409 16.6967 9.16658 17.1092Z" fill="#36D7FF"/>
</g>
</svg>
