<svg width="24" height="24" viewBox="0 0 24 24" fill="none" xmlns="http://www.w3.org/2000/svg">
<g id="volume-mute-line">
<path id="Vector" d="M10 7.22006L6.60282 9.99957H3V13.9996H6.60282L10 16.7791V7.22006ZM5.88889 15.9996H2C1.44772 15.9996 1 15.5519 1 14.9996V8.99958C1 8.44729 1.44772 7.99958 2 7.99958H5.88889L11.1834 3.66772C11.3971 3.49286 11.7121 3.52436 11.887 3.73808C11.9601 3.82741 12 3.93928 12 4.0547V19.9445C12 20.2206 11.7761 20.4445 11.5 20.4445C11.3846 20.4445 11.2727 20.4046 11.1834 20.3315L5.88889 15.9996ZM20.4142 11.9996L23.9497 15.5351L22.5355 16.9494L19 13.4138L15.4645 16.9494L14.0503 15.5351L17.5858 11.9996L14.0503 8.46404L15.4645 7.04983L19 10.5854L22.5355 7.04983L23.9497 8.46404L20.4142 11.9996Z" fill="#001122"/>
</g>
</svg>
