<svg width="24" height="24" viewBox="0 0 24 24" fill="none" xmlns="http://www.w3.org/2000/svg">
<circle cx="12" cy="12" r="12" fill="#3E46B6"/>
<g clip-path="url(#clip0_6254_19550)">
<path d="M10.25 8.51562H8.75C8.33594 8.51562 8 8.85156 8 9.26562V14.7656C8 15.1797 8.33594 15.5156 8.75 15.5156H10.25C10.6641 15.5156 11 15.1797 11 14.7656V9.26562C11 8.85156 10.6641 8.51562 10.25 8.51562ZM15 9.26562V14.7656C15 15.1797 14.6641 15.5156 14.25 15.5156H12.75C12.3359 15.5156 12 15.1797 12 14.7656V9.26562C12 8.85156 12.3359 8.51562 12.75 8.51562H14.25C14.6641 8.51562 15 8.85156 15 9.26562Z" fill="white"/>
</g>
<defs>
<clipPath id="clip0_6254_19550">
<rect width="7" height="8" fill="white" transform="matrix(1 0 0 -1 8 16)"/>
</clipPath>
</defs>
</svg>
