<svg width="25" height="25" viewBox="0 0 25 25" fill="none" xmlns="http://www.w3.org/2000/svg">
<g id="file-pdf-2-fill">
<path id="Vector" d="M4.1651 2.08008C3.59114 2.08008 3.125 2.54263 3.125 3.1132V21.8803C3.125 22.4391 3.58829 22.9134 4.15979 22.9134H20.8402C21.4116 22.9134 21.875 22.4435 21.875 21.8639L21.8747 7.28841L16.6667 2.08008H4.1651ZM10.9375 7.80925H13.0208C13.0208 10.4029 15.2537 13.1847 18.0377 14.1127L17.561 16.1322C14.2952 15.6656 10.9189 17.0597 7.86948 19.0927L6.64094 17.4125C7.77239 16.5074 8.85722 14.9714 9.66145 13.1774C10.4628 11.3898 10.9375 9.45246 10.9375 7.80925ZM11.5625 14.0297C11.8409 13.4084 12.0878 12.7637 12.2955 12.1098C12.7869 12.8646 13.3909 13.5574 14.0731 14.1585C13.0504 14.3416 12.0485 14.6422 11.0784 15.0255C11.25 14.6991 11.4116 14.3663 11.5625 14.0297Z" fill="#D21B1B"/>
</g>
</svg>
