<svg width="24" height="24" viewBox="0 0 24 24" fill="none" xmlns="http://www.w3.org/2000/svg">
<g id="volume-up-line">
<path id="Vector" d="M6.60282 9.99961L10 7.22007V16.7791L6.60282 13.9996H3V9.99961H6.60282ZM2 15.9996H5.88889L11.1834 20.3314C11.2727 20.4045 11.3846 20.4444 11.5 20.4444C11.7761 20.4444 12 20.2206 12 19.9444V4.0547C12 3.93928 11.9601 3.82741 11.887 3.73808C11.7121 3.52436 11.3971 3.49286 11.1834 3.66772L5.88889 7.99958H2C1.44772 7.99958 1 8.44729 1 8.99958V14.9996C1 15.5519 1.44772 15.9996 2 15.9996ZM23 11.9995C23 15.2915 21.5539 18.2458 19.2622 20.2617L17.8445 18.8439C19.7758 17.1932 21 14.7393 21 11.9995C21 9.25967 19.7758 6.8058 17.8445 5.15508L19.2622 3.7373C21.5539 5.75319 23 8.70746 23 11.9995ZM18 11.9995C18 10.0878 17.106 8.38499 15.7133 7.28624L14.2842 8.71535C15.3213 9.43806 16 10.6395 16 11.9995C16 13.3595 15.3213 14.5609 14.2842 15.2836L15.7133 16.7127C17.106 15.614 18 13.9111 18 11.9995Z" fill="#001122"/>
</g>
</svg>
