<svg width="20" height="21" viewBox="0 0 20 21" fill="none" xmlns="http://www.w3.org/2000/svg">
<g id="time-line">
<path id="Vector" d="M9.99996 18.8327C5.39758 18.8327 1.66663 15.1017 1.66663 10.4993C1.66663 5.89697 5.39758 2.16602 9.99996 2.16602C14.6023 2.16602 18.3333 5.89697 18.3333 10.4993C18.3333 15.1017 14.6023 18.8327 9.99996 18.8327ZM9.99996 17.166C13.6819 17.166 16.6666 14.1813 16.6666 10.4993C16.6666 6.81745 13.6819 3.83268 9.99996 3.83268C6.31806 3.83268 3.33329 6.81745 3.33329 10.4993C3.33329 14.1813 6.31806 17.166 9.99996 17.166ZM10.8333 10.4993H14.1666V12.166H9.16663V6.33268H10.8333V10.4993Z" fill="#3F9CE9"/>
</g>
</svg>
